PathFileType	4	(X/Y/Z)	Kaydara																																																																																																																									
DataRate	CameraRate	NumFrames	NumMarkers	Units	OrigDataRate	OrigDataStartFrame	OrigNumFrames																																																																																																																					
30	30	4	41	mm	30	114	180																																																																																																																					
Frame#	Time	SALE_LFHD			SALE_RFHD			SALE_LBHD			SALE_RBHD			SALE_LFTShould			SALE_RFTShould			SALE_LRRShould			SALE_RRRShould			SALE_T10			SALE_STRN			SALE_TRUN			SALE_LSHO			SALE_LUPA			SALE_LELB			SALE_LFRM			SALE_LWRA			SALE_LWRB			SALE_LFIN			SALE_RSHO			SALE_RUPA			SALE_RELB			SALE_RFRM			SALE_RWRB			SALE_RFIN			SALE_LFWT			SALE_RFWT			SALE_LBWT			SALE_RBWT			SALE_LTHI			SALE_LKNE			SALE_RWRA			SALE_LSHN			SALE_LANK			SALE_LHEE			SALE_LTOE			SALE_RTHI			SALE_RKNE			SALE_RSHN			SALE_RANK			SALE_RHEE			SALE_RTOE		
		X1	Y1	Z1	X2	Y2	Z2	X3	Y3	Z3	X4	Y4	Z4	X5	Y5	Z5	X6	Y6	Z6	X7	Y7	Z7	X8	Y8	Z8	X9	Y9	Z9	X10	Y10	Z10	X11	Y11	Z11	X12	Y12	Z12	X13	Y13	Z13	X14	Y14	Z14	X15	Y15	Z15	X16	Y16	Z16	X17	Y17	Z17	X18	Y18	Z18	X19	Y19	Z19	X20	Y20	Z20	X21	Y21	Z21	X22	Y22	Z22	X23	Y23	Z23	X24	Y24	Z24	X25	Y25	Z25	X26	Y26	Z26	X27	Y27	Z27	X28	Y28	Z28	X29	Y29	Z29	X30	Y30	Z30	X31	Y31	Z31	X32	Y32	Z32	X33	Y33	Z33	X34	Y34	Z34	X35	Y35	Z35	X36	Y36	Z36	X37	Y37	Z37	X38	Y38	Z38	X39	Y39	Z39	X40	Y40	Z40	X41	Y41	Z41
																																																																																																																												
113	3.783	209.0666	1635.0032	-620.564	77.21864	1644.10461	-621.87126	201.3891	1573.02017	-739.31885	74.85875	1583.54965	-734.534	208.78183	1362.02606	-594.27032	68.9985	1349.99512	-602.0248	204.09197	1435.82306	-702.56889	52.46236	1428.34702	-700.41672	137.26956	1289.79446	-790.36278	138.82695	1277.46536	-561.64852	141.50551	1185.62454	-535.31063	324.33681	1402.19513	-652.6696	377.37732	1199.69475	-715.22552	369.14646	1097.91367	-756.39427	407.696	991.95663	-752.12029	357.15164	836.78299	-724.86458	424.64085	844.77562	-762.06192	420.24864	788.72215	-727.09717	-37.8805	1382.51373	-664.84512	-63.24692	1163.61023	-756.80206	-95.68069	1058.68103	-726.60133	-88.029	947.06169	-747.94502	-109.21089	806.51855	-716.97563	-121.18245	762.68608	-666.95671	275.46227	952.64771	-654.65836	-1.45965	962.74422	-654.34532	223.36197	1015.49385	-820.44312	47.8465	1031.29318	-821.7115	255.51569	633.19313	-715.69359	257.4707	499.17526	-577.33662	-65.90412	811.09726	-656.58493	253.58459	336.63673	-712.63344	250.43434	247.46656	-881.60316	207.39056	255.95348	-961.34178	234.74333	119.41309	-824.94423	-11.20094	708.14873	-796.74751	26.37874	552.65823	-686.08719	87.62183	360.09987	-697.41051	50.44491	106.34067	-749.8703	71.33484	61.70428	-631.38672	93.58752	47.19569	-824.38202
114	3.817	212.99477	1634.86923	-566.9418	81.13029	1645.48981	-564.84074	201.66843	1577.16492	-687.39151	75.56302	1588.90656	-679.31145	212.33397	1365.65323	-548.0452	71.89849	1354.56604	-551.64425	201.75249	1436.53839	-656.2854	51.75897	1430.22873	-650.14046	131.56848	1290.5304	-741.19553	141.95685	1282.50183	-512.52113	145.04868	1190.6636	-485.91274	323.87589	1404.69101	-612.64	373.86707	1206.75278	-685.8149	361.51711	1106.72005	-730.41893	403.84495	1004.39468	-740.91278	365.18261	844.12003	-718.50616	423.80657	859.62502	-766.55067	430.81181	801.77094	-738.73604	-37.46054	1386.83411	-610.88314	-66.80977	1166.93893	-696.02844	-98.2459	1062.13974	-659.94743	-91.13698	947.72186	-671.59401	-109.81604	810.86548	-625.26768	-120.13609	775.39391	-568.7933	274.1781	955.75607	-605.66719	-3.53652	958.98872	-606.04095	221.16987	1015.92422	-771.60851	45.88308	1029.12109	-771.521	266.83947	638.75095	-643.23235	254.00867	518.87447	-490.95005	-62.12226	821.21933	-568.18226	250.91385	332.08843	-597.69295	249.94555	213.67172	-748.72734	208.42152	205.71369	-830.91766	231.70712	104.14772	-666.49841	-10.46063	710.04959	-762.80914	26.359	548.04005	-663.70132	85.76545	357.6173	-687.07954	50.1799	106.44718	-750.04272	70.32198	61.53057	-631.97514	94.81318	47.7179	-825.15923
115	3.85	217.74607	1629.46075	-514.12682	86.34103	1642.18781	-508.33282	202.66689	1575.43655	-635.64831	77.12066	1588.77106	-624.08699	215.44931	1363.37402	-501.38699	74.1758	1354.36905	-500.98747	199.94228	1432.18536	-609.85847	51.19036	1426.9104	-600.03826	126.57296	1285.97443	-691.94321	144.76051	1282.00867	-462.68902	148.07968	1190.01953	-436.13064	323.30101	1401.39267	-572.24678	369.74976	1209.65378	-656.89514	355.82302	1111.8721	-705.18234	400.86342	1012.74162	-727.15424	373.42587	848.89091	-706.61514	422.70378	870.82695	-763.96019	437.67609	812.56279	-742.82089	-37.10763	1385.57693	-557.32826	-72.05468	1163.47672	-635.28816	-101.42836	1060.09132	-594.93389	-93.99848	944.21112	-595.52471	-110.08367	813.08907	-533.43384	-117.97553	784.60922	-472.5246	274.24046	954.74922	-556.01105	-3.39166	951.30554	-554.71504	218.47822	1012.6046	-722.22702	43.31321	1022.61398	-721.11191	274.38095	641.60355	-575.30109	251.35473	531.17016	-416.47396	-60.61426	830.29808	-479.2207	249.7654	324.16122	-484.71638	251.35098	174.93208	-605.47279	212.18174	148.5784	-685.66559	227.90768	90.72949	-500.99339	-9.63696	709.83154	-725.56076	24.99009	543.98125	-637.75249	84.54597	354.1748	-671.55434	50.16119	106.27696	-748.41888	70.03645	60.93438	-632.06535	95.62856	48.86342	-824.67728
116	3.883	223.44749	1619.31473	-462.15023	92.59971	1634.55933	-453.02822	204.35194	1567.48398	-584.09199	79.42754	1583.07877	-569.21497	218.34801	1354.08585	-454.71066	75.72577	1346.99707	-449.80854	198.57574	1423.45276	-562.79972	50.23799	1418.65219	-548.28617	122.20352	1277.42874	-642.29088	147.33227	1274.12392	-413.50319	150.90001	1182.28943	-386.52939	322.62489	1393.17734	-530.38265	365.6918	1208.24211	-627.21687	351.61053	1112.04956	-678.65036	398.68359	1016.06674	-709.64157	381.52977	850.59731	-694.00063	422.56382	876.88179	-754.64943	442.10583	818.58665	-737.66991	-36.98327	1378.0928	-503.12553	-75.97725	1153.58673	-575.90557	-105.16031	1051.70853	-529.67999	-97.14216	936.39336	-519.89517	-109.79873	813.31589	-442.71393	-115.65738	790.16357	-379.19884	274.03036	948.81653	-504.29073	-3.15803	942.4968	-503.61748	217.79697	1004.71184	-671.0968	42.9832	1014.54529	-669.56917	278.04968	637.95982	-515.96142	251.27058	531.34327	-355.46043	-59.90527	837.50694	-391.57791	251.24365	314.1481	-375.49664	253.52673	139.11955	-454.04652	216.77683	94.25522	-526.48846	225.34597	84.3377	-332.19978	-7.78463	707.3822	-683.64059	27.32049	537.81399	-605.34355	87.13649	350.13714	-653.09822	51.74319	106.84229	-744.44069	70.87698	60.59805	-631.42036	97.17934	52.30968	-823.64182
